<svg xmlns="http://www.w3.org/2000/svg" width="500" height="500" viewBox="0 0 500 500" version="1.1"><path d="M 128.492 210.767 L 133.458 216.033 91.979 257.625 C 69.165 280.501, 50.950 299.045, 51.500 298.833 C 52.050 298.622, 70.944 279.897, 93.486 257.222 L 134.472 215.995 128.999 210.748 L 123.526 205.500 128.492 210.767 M 52.473 218.250 L 45.500 225.500 52.750 218.527 C 59.484 212.050, 60.457 211, 59.723 211 C 59.571 211, 56.308 214.262, 52.473 218.250 M 152.993 241.719 C 138.972 255.864, 131.550 263.556, 136.500 258.813 C 148.454 247.357, 179.548 216, 178.954 216 C 178.696 216, 167.014 227.573, 152.993 241.719 M 339 224.500 C 341.987 227.525, 344.657 230, 344.932 230 C 345.207 230, 342.987 227.525, 340 224.500 C 337.013 221.475, 334.343 219, 334.068 219 C 333.793 219, 336.013 221.475, 339 224.500 M 162.473 282.250 L 155.500 289.500 162.742 282.534 L 169.985 275.569 174.742 280.034 L 179.500 284.500 175.042 279.750 C 172.590 277.137, 170.328 275, 170.015 275 C 169.702 275, 166.308 278.262, 162.473 282.250 M 28.971 291.750 L 22.500 298.500 29.250 292.029 C 35.520 286.018, 36.457 285, 35.721 285 C 35.568 285, 32.530 288.038, 28.971 291.750 M 90.958 293.250 C 93.410 295.863, 95.548 298, 95.708 298 C 96.459 298, 95.665 297.102, 91.250 292.958 L 86.500 288.500 90.958 293.250 M 159.958 294.250 C 162.410 296.863, 164.548 299, 164.708 299 C 165.459 299, 164.665 298.102, 160.250 293.958 L 155.500 289.500 159.958 294.250" stroke="none" fill="#bababa" fill-rule="evenodd"/><path d="M 53.739 169.761 L 21.990 201.521 33.765 213.266 L 45.540 225.010 52.779 217.722 L 60.018 210.434 55.492 205.992 L 50.966 201.550 72.725 179.775 L 94.483 158 107.983 158 L 121.483 158 143.244 179.744 L 165.004 201.487 123.759 242.741 L 82.513 283.996 89.694 291.177 L 96.875 298.357 145.252 249.723 L 193.630 201.089 162.029 169.545 L 130.428 138 107.958 138 L 85.488 138 53.739 169.761 M 70.999 250.501 L 22.510 298.998 53.999 330.499 L 85.488 362 107.958 362 L 130.428 362 162.201 330.284 L 193.974 298.568 190.737 295.194 C 188.957 293.339, 183.535 288.187, 178.690 283.747 L 169.879 275.673 162.943 282.556 L 156.008 289.439 160.491 293.991 L 164.974 298.543 143.229 320.271 L 121.483 342 108 342 L 94.517 342 72.756 320.256 L 50.996 298.513 92.241 257.259 L 133.487 216.004 126.487 209.004 L 119.488 202.005 70.999 250.501 M 207.500 213.938 C 206.400 214.394, 202.912 217.485, 199.750 220.809 L 194 226.852 194 233.647 L 194 240.442 199.719 246.221 L 205.437 252 227.044 252 C 248.337 252, 248.683 252.034, 250.826 254.314 C 253.795 257.475, 253.574 261.075, 250.214 264.295 L 247.427 266.965 221.964 267.232 L 196.500 267.500 196.200 273.250 L 195.900 279 224.729 279 L 253.558 279 259.779 272.723 L 266 266.446 266 258.368 L 266 250.290 260.560 245.145 L 255.120 240 233.099 240 C 211.733 240, 211.017 239.935, 209.039 237.811 C 206.242 234.809, 206.483 231.869, 209.786 228.705 L 212.572 226.036 237.536 225.768 L 262.500 225.500 262.500 219.500 L 262.500 213.500 236 213.305 C 221.425 213.198, 208.600 213.483, 207.500 213.938 M 286.364 221.250 C 284.325 223.037, 280.935 226.678, 278.829 229.340 L 275 234.180 275 256.590 L 275 279 280.956 279 L 286.912 279 287.206 271.750 L 287.500 264.500 311 264.500 L 334.500 264.500 334.794 271.750 L 335.088 279 341.044 279 L 347 279 347 255.774 L 347 232.547 339.775 225.274 L 332.550 218 311.310 218 L 290.070 218 286.364 221.250 M 357 248.452 L 357 279 363.515 279 L 370.029 279 369.765 248.750 L 369.500 218.500 363.250 218.202 L 357 217.905 357 248.452 M 379 248.452 L 379 279 385.467 279 L 391.934 279 392.217 267.750 L 392.500 256.500 410.859 256.227 L 429.217 255.954 433.609 260.345 C 437.976 264.713, 438 264.776, 438 271.868 L 438 279 444.500 279 L 451 279 451 268.281 L 451 257.563 445.996 252.496 L 440.992 247.429 445.996 239.298 C 450.671 231.701, 451 230.734, 451 224.583 L 451 218 444.500 218 L 438 218 438 222.254 C 438 225.622, 436.940 228.227, 432.912 234.754 L 427.824 243 409.943 243 L 392.062 243 391.781 230.750 L 391.500 218.500 385.250 218.202 L 379 217.905 379 248.452 M 460 248.500 L 460 279 466.500 279 L 473 279 473 248.500 L 473 218 466.500 218 L 460 218 460 248.500 M 290.839 233.926 L 286.913 237.852 287.207 245.676 L 287.500 253.500 311.250 253.768 L 335 254.036 335 245.192 C 335 237.295, 334.759 236.129, 332.750 234.299 C 328.445 230.378, 326.483 230, 310.448 230 L 294.765 230 290.839 233.926" stroke="none" fill="#fbfbfb" fill-rule="evenodd"/></svg>