<?xml version="1.0" standalone="no"?>
<!DOCTYPE svg PUBLIC "-//W3C//DTD SVG 20010904//EN"
 "http://www.w3.org/TR/2001/REC-SVG-20010904/DTD/svg10.dtd">
<svg version="1.0" xmlns="http://www.w3.org/2000/svg"
 width="500.000000pt" height="500.000000pt" viewBox="0 0 500.000000 500.000000"
 preserveAspectRatio="xMidYMid meet">

<g transform="translate(0.000000,500.000000) scale(0.100000,-0.100000)"
fill="#000000" stroke="none">
<path d="M1357 3942 l-667 -667 253 -253 252 -252 155 155 155 155 -98 98 -97
97 448 448 447 447 295 0 295 0 445 -445 445 -445 -863 -863 c-474 -474 -862
-867 -862 -872 0 -6 67 -78 150 -160 l150 -149 1017 1014 c560 558 1020 1019
1022 1024 2 5 -295 307 -660 672 l-664 664 -475 0 -475 0 -668 -668z"/>
<path d="M1717 2252 l-1017 -1017 618 -618 617 -617 569 0 569 0 614 615 c337
338 613 618 613 623 0 4 -112 120 -250 257 l-250 250 -155 -155 -155 -155 97
-97 98 -98 -450 -450 -450 -450 -285 0 -285 0 -448 448 -447 447 865 865 865
865 -152 152 c-84 84 -155 153 -158 153 -3 0 -463 -458 -1023 -1018z"/>
</g>
</svg>
